<svg width="113" height="94" viewBox="0 0 113 94" fill="none" xmlns="http://www.w3.org/2000/svg">
<mask id="mask0_20_13" style="mask-type:luminance" maskUnits="userSpaceOnUse" x="0" y="0" width="113" height="94">
<path d="M113 0H0V93.9117H113V0Z" fill="white"/>
</mask>
<g mask="url(#mask0_20_13)">
<path d="M103.989 93.5448C108.98 93.5448 113.027 89.4978 113.027 84.5058C113.027 79.5138 108.98 75.4678 103.989 75.4678C98.997 75.4678 94.95 79.5138 94.95 84.5058C94.95 89.4978 98.997 93.5448 103.989 93.5448Z" fill="#1C8CCD"/>
<path d="M89.406 66.44C89.406 70.327 89.004 73.946 88.067 77.298C87.228 80.482 85.725 83.451 83.657 86.012C81.644 88.424 78.965 90.301 75.881 91.644C72.799 93.118 69.044 93.788 64.755 93.788L0 93.921V0.0777893L19.5717 0.00878906V36.9445H59.9253C59.9253 36.9445 89.406 36.1855 89.406 66.44ZM19.5487 75.286L59.9023 75.154C61.1994 75.179 62.4969 75.133 63.7891 75.019C64.9965 74.883 66.069 74.616 67.009 73.946C67.949 73.276 68.616 72.336 69.153 70.997C69.691 69.657 69.956 67.78 69.956 65.233C69.956 62.686 69.688 60.808 69.153 59.483C68.619 58.158 67.946 57.203 67.009 56.5335C66.072 55.8637 64.9965 55.5934 63.7891 55.4612C62.4969 55.3463 61.1994 55.3012 59.9023 55.3261L19.5487 55.4612V75.286Z" fill="white"/>
</g>
</svg>
